<svg width="64" height="56" viewBox="0 0 64 56" fill="none" xmlns="http://www.w3.org/2000/svg">
<path d="M59.3152 8.62273C68.2118 13.9614 64.4393 61.3345 47.9796 55.5038C25.5652 47.5637 -1.26155 66.2621 0.0459933 30.5739C0.968871 5.38488 26.8262 -10.8734 59.3152 8.62273Z" fill="#FE9071"/>
<g clip-path="url(#clip0)">
<path d="M44.1819 21.8594C43.8529 21.7183 43.4813 21.7138 43.1489 21.8467C42.8165 21.9796 42.5504 22.2391 42.4093 22.5681L38.7103 31.2H27.342L26.1 16.238C26.0718 15.8997 25.9173 15.5844 25.6671 15.355C25.4169 15.1256 25.0894 14.9988 24.75 15H19.35C18.992 15 18.6486 15.1422 18.3954 15.3954C18.1422 15.6486 18 15.992 18 16.35C18 16.7081 18.1422 17.0514 18.3954 17.3046C18.6486 17.5578 18.992 17.7 19.35 17.7H23.508L24.75 32.6621C24.7782 33.0003 24.9327 33.3156 25.1829 33.545C25.4331 33.7744 25.7606 33.9012 26.1 33.9H39.6C39.8642 33.9 40.1225 33.8225 40.343 33.677C40.5636 33.5316 40.7366 33.3247 40.8406 33.0819L44.8906 23.6319C45.0317 23.3029 45.0362 22.9313 44.9033 22.5989C44.7704 22.2665 44.5109 22.0005 44.1819 21.8594Z" fill="white"/>
<path d="M26.775 40.6496C27.8934 40.6496 28.8 39.743 28.8 38.6246C28.8 37.5062 27.8934 36.5996 26.775 36.5996C25.6566 36.5996 24.75 37.5062 24.75 38.6246C24.75 39.743 25.6566 40.6496 26.775 40.6496Z" fill="white"/>
<path d="M38.9249 40.6496C40.0433 40.6496 40.9499 39.743 40.9499 38.6246C40.9499 37.5062 40.0433 36.5996 38.9249 36.5996C37.8065 36.5996 36.8999 37.5062 36.8999 38.6246C36.8999 39.743 37.8065 40.6496 38.9249 40.6496Z" fill="white"/>
</g>
<defs>
<clipPath id="clip0">
<rect width="27" height="27" fill="white" transform="translate(18 15)"/>
</clipPath>
</defs>
</svg>
